<svg width="25234" height="10337" viewBox="0 0 25234 10337" fill="none" xmlns="http://www.w3.org/2000/svg">
<rect y="5462" width="12617" height="72" fill="#1B1D2A"/>
<path d="M3117.5 992.216C3144.28 923.346 3241.73 923.346 3268.5 992.216L4991.11 5423.65C5011.75 5476.75 4972.58 5534 4915.61 5534H1470.39C1413.42 5534 1374.25 5476.75 1394.89 5423.65L3117.5 992.216Z" fill="#1B1D2A"/>
<path d="M4743.86 2444.45C4772.45 2382.47 4860.55 2382.47 4889.14 2444.45L6256.63 5408.49C6281.09 5461.49 6242.37 5522 6183.99 5522H3449.01C3390.63 5522 3351.91 5461.49 3376.37 5408.49L4743.86 2444.45Z" fill="#1B1D2A"/>
<path fill-rule="evenodd" clip-rule="evenodd" d="M2945.97 1433.49L3117.5 992.216C3144.27 923.346 3241.72 923.346 3268.5 992.216L3440.03 1433.49C3363.55 1458.34 3280.21 1472 3193 1472C3105.79 1472 3022.45 1458.34 2945.97 1433.49Z" fill="#4A5073"/>
<path d="M22370.5 2364.27C22402.8 2319.73 22469.2 2319.73 22501.5 2364.27L24709.6 5405.41C24748.5 5458.95 24710.3 5534 24644.1 5534H20227.9C20161.7 5534 20123.5 5458.95 20162.4 5405.41L22370.5 2364.27Z" fill="#1B1D2A"/>
<path fill-rule="evenodd" clip-rule="evenodd" d="M22753.6 2711.43C22655.3 2728.54 22548.1 2737.94 22436 2737.94C22323.9 2737.94 22216.7 2728.54 22118.4 2711.43L22370.5 2364.27C22402.8 2319.73 22469.2 2319.73 22501.5 2364.27L22753.6 2711.43Z" fill="#4A5073"/>
<rect y="3810" width="420" height="1652" fill="#1B1D2A"/>
<rect x="466" y="4253" width="420" height="1209" fill="#1B1D2A"/>
<rect x="932" y="3810" width="420" height="1652" fill="#1B1D2A"/>
<rect x="932" y="3136" width="420" height="731" fill="#1B1D2A"/>
<rect x="48" y="4195" width="75" height="110" fill="#4A5073"/>
<rect x="172" y="4195" width="75" height="110" fill="#4A5073"/>
<rect x="296" y="4195" width="75" height="110" fill="#4A5073"/>
<rect x="48" y="3867" width="75" height="110" fill="#4A5073"/>
<rect x="172" y="3867" width="75" height="110" fill="#4A5073"/>
<rect x="296" y="3867" width="75" height="110" fill="#4A5073"/>
<rect x="48" y="4871" width="75" height="110" fill="#4A5073"/>
<rect x="172" y="4871" width="75" height="110" fill="#4A5073"/>
<rect x="296" y="4871" width="75" height="110" fill="#4A5073"/>
<rect x="980" y="3867" width="75" height="110" fill="#4A5073"/>
<rect x="1104" y="3867" width="75" height="110" fill="#4A5073"/>
<rect x="1228" y="3867" width="75" height="110" fill="#4A5073"/>
<rect x="514" y="4472" width="75" height="110" fill="#4A5073"/>
<rect x="638" y="4472" width="75" height="110" fill="#4A5073"/>
<rect x="762" y="4472" width="75" height="110" fill="#4A5073"/>
<rect x="514" y="4303" width="75" height="110" fill="#4A5073"/>
<rect x="638" y="4303" width="75" height="110" fill="#4A5073"/>
<rect x="762" y="4303" width="75" height="110" fill="#4A5073"/>
<rect x="514" y="4810" width="75" height="110" fill="#4A5073"/>
<rect x="638" y="4810" width="75" height="110" fill="#4A5073"/>
<rect x="762" y="4810" width="75" height="110" fill="#4A5073"/>
<rect x="514" y="5148" width="75" height="110" fill="#4A5073"/>
<rect x="638" y="5148" width="75" height="110" fill="#4A5073"/>
<rect x="762" y="5148" width="75" height="110" fill="#4A5073"/>
<rect x="48" y="4364" width="75" height="110" fill="#4A5073"/>
<rect x="172" y="4364" width="75" height="110" fill="#4A5073"/>
<rect x="296" y="4364" width="75" height="110" fill="#4A5073"/>
<rect x="48" y="4036" width="75" height="110" fill="#4A5073"/>
<rect x="172" y="4036" width="75" height="110" fill="#4A5073"/>
<rect x="296" y="4036" width="75" height="110" fill="#4A5073"/>
<rect x="48" y="5040" width="75" height="110" fill="#4A5073"/>
<rect x="172" y="5040" width="75" height="110" fill="#4A5073"/>
<rect x="296" y="5040" width="75" height="110" fill="#4A5073"/>
<rect x="980" y="4036" width="75" height="110" fill="#4A5073"/>
<rect x="1104" y="4036" width="75" height="110" fill="#4A5073"/>
<rect x="1228" y="4036" width="75" height="110" fill="#4A5073"/>
<rect x="514" y="4641" width="75" height="110" fill="#4A5073"/>
<rect x="638" y="4641" width="75" height="110" fill="#4A5073"/>
<rect x="762" y="4641" width="75" height="110" fill="#4A5073"/>
<rect x="514" y="4979" width="75" height="110" fill="#4A5073"/>
<rect x="638" y="4979" width="75" height="110" fill="#4A5073"/>
<rect x="762" y="4979" width="75" height="110" fill="#4A5073"/>
<rect x="48" y="4533" width="75" height="110" fill="#4A5073"/>
<rect x="172" y="4533" width="75" height="110" fill="#4A5073"/>
<rect x="296" y="4533" width="75" height="110" fill="#4A5073"/>
<rect x="48" y="5209" width="75" height="110" fill="#4A5073"/>
<rect x="172" y="5209" width="75" height="110" fill="#4A5073"/>
<rect x="296" y="5209" width="75" height="110" fill="#4A5073"/>
<rect x="980" y="4205" width="75" height="110" fill="#4A5073"/>
<rect x="1104" y="4205" width="75" height="110" fill="#4A5073"/>
<rect x="1228" y="4205" width="75" height="110" fill="#4A5073"/>
<rect x="980" y="4543" width="75" height="110" fill="#4A5073"/>
<rect x="1104" y="4543" width="75" height="110" fill="#4A5073"/>
<rect x="1228" y="4543" width="75" height="110" fill="#4A5073"/>
<rect x="980" y="5050" width="75" height="110" fill="#4A5073"/>
<rect x="1104" y="5050" width="75" height="110" fill="#4A5073"/>
<rect x="1228" y="5050" width="75" height="110" fill="#4A5073"/>
<rect x="980" y="3532" width="75" height="110" fill="#4A5073"/>
<rect x="1104" y="3532" width="75" height="110" fill="#4A5073"/>
<rect x="1228" y="3532" width="75" height="110" fill="#4A5073"/>
<rect x="48" y="4702" width="75" height="110" fill="#4A5073"/>
<rect x="172" y="4702" width="75" height="110" fill="#4A5073"/>
<rect x="296" y="4702" width="75" height="110" fill="#4A5073"/>
<rect x="980" y="4374" width="75" height="110" fill="#4A5073"/>
<rect x="1104" y="4374" width="75" height="110" fill="#4A5073"/>
<rect x="1228" y="4374" width="75" height="110" fill="#4A5073"/>
<rect x="980" y="4881" width="75" height="110" fill="#4A5073"/>
<rect x="1104" y="4881" width="75" height="110" fill="#4A5073"/>
<rect x="1228" y="4881" width="75" height="110" fill="#4A5073"/>
<rect x="980" y="3363" width="75" height="110" fill="#4A5073"/>
<rect x="1104" y="3363" width="75" height="110" fill="#4A5073"/>
<rect x="1228" y="3363" width="75" height="110" fill="#4A5073"/>
<rect x="980" y="4712" width="75" height="110" fill="#4A5073"/>
<rect x="1104" y="4712" width="75" height="110" fill="#4A5073"/>
<rect x="1228" y="4712" width="75" height="110" fill="#4A5073"/>
<rect x="980" y="3194" width="75" height="110" fill="#4A5073"/>
<rect x="1104" y="3194" width="75" height="110" fill="#4A5073"/>
<rect x="1228" y="3194" width="75" height="110" fill="#4A5073"/>
<rect x="980" y="5219" width="75" height="110" fill="#4A5073"/>
<rect x="1104" y="5219" width="75" height="110" fill="#4A5073"/>
<rect x="1228" y="5219" width="75" height="110" fill="#4A5073"/>
<rect x="980" y="3701" width="75" height="110" fill="#4A5073"/>
<rect x="1104" y="3701" width="75" height="110" fill="#4A5073"/>
<rect x="1228" y="3701" width="75" height="110" fill="#4A5073"/>
<rect x="9403" y="3497" width="420" height="1989" fill="#1B1D2A"/>
<rect x="9869" y="3931" width="420" height="1555" fill="#1B1D2A"/>
<rect x="10335" y="3834" width="420" height="1652" fill="#1B1D2A"/>
<rect x="10335" y="3160" width="420" height="731" fill="#1B1D2A"/>
<rect x="9451" y="4219" width="75" height="110" fill="#4A5073"/>
<rect x="9575" y="4219" width="75" height="110" fill="#4A5073"/>
<rect x="9699" y="4219" width="75" height="110" fill="#4A5073"/>
<rect x="9451" y="3891" width="75" height="110" fill="#4A5073"/>
<rect x="9575" y="3891" width="75" height="110" fill="#4A5073"/>
<rect x="9699" y="3891" width="75" height="110" fill="#4A5073"/>
<rect x="9451" y="3553" width="75" height="110" fill="#4A5073"/>
<rect x="9575" y="3553" width="75" height="110" fill="#4A5073"/>
<rect x="9699" y="3553" width="75" height="110" fill="#4A5073"/>
<rect x="9451" y="4895" width="75" height="110" fill="#4A5073"/>
<rect x="9575" y="4895" width="75" height="110" fill="#4A5073"/>
<rect x="9699" y="4895" width="75" height="110" fill="#4A5073"/>
<rect x="10383" y="3891" width="75" height="110" fill="#4A5073"/>
<rect x="10507" y="3891" width="75" height="110" fill="#4A5073"/>
<rect x="10631" y="3891" width="75" height="110" fill="#4A5073"/>
<rect x="9917" y="4496" width="75" height="110" fill="#4A5073"/>
<rect x="10041" y="4496" width="75" height="110" fill="#4A5073"/>
<rect x="10165" y="4496" width="75" height="110" fill="#4A5073"/>
<rect x="9917" y="4158" width="75" height="110" fill="#4A5073"/>
<rect x="10041" y="4158" width="75" height="110" fill="#4A5073"/>
<rect x="10165" y="4158" width="75" height="110" fill="#4A5073"/>
<rect x="9917" y="4327" width="75" height="110" fill="#4A5073"/>
<rect x="10041" y="4327" width="75" height="110" fill="#4A5073"/>
<rect x="10165" y="4327" width="75" height="110" fill="#4A5073"/>
<rect x="9917" y="3989" width="75" height="110" fill="#4A5073"/>
<rect x="10041" y="3989" width="75" height="110" fill="#4A5073"/>
<rect x="10165" y="3989" width="75" height="110" fill="#4A5073"/>
<rect x="9917" y="4834" width="75" height="110" fill="#4A5073"/>
<rect x="10041" y="4834" width="75" height="110" fill="#4A5073"/>
<rect x="10165" y="4834" width="75" height="110" fill="#4A5073"/>
<rect x="9917" y="5172" width="75" height="110" fill="#4A5073"/>
<rect x="10041" y="5172" width="75" height="110" fill="#4A5073"/>
<rect x="10165" y="5172" width="75" height="110" fill="#4A5073"/>
<rect x="9451" y="4388" width="75" height="110" fill="#4A5073"/>
<rect x="9575" y="4388" width="75" height="110" fill="#4A5073"/>
<rect x="9699" y="4388" width="75" height="110" fill="#4A5073"/>
<rect x="9451" y="4060" width="75" height="110" fill="#4A5073"/>
<rect x="9575" y="4060" width="75" height="110" fill="#4A5073"/>
<rect x="9699" y="4060" width="75" height="110" fill="#4A5073"/>
<rect x="9451" y="3722" width="75" height="110" fill="#4A5073"/>
<rect x="9575" y="3722" width="75" height="110" fill="#4A5073"/>
<rect x="9699" y="3722" width="75" height="110" fill="#4A5073"/>
<rect x="9451" y="5064" width="75" height="110" fill="#4A5073"/>
<rect x="9575" y="5064" width="75" height="110" fill="#4A5073"/>
<rect x="9699" y="5064" width="75" height="110" fill="#4A5073"/>
<rect x="10383" y="4060" width="75" height="110" fill="#4A5073"/>
<rect x="10507" y="4060" width="75" height="110" fill="#4A5073"/>
<rect x="10631" y="4060" width="75" height="110" fill="#4A5073"/>
<rect x="9917" y="4665" width="75" height="110" fill="#4A5073"/>
<rect x="10041" y="4665" width="75" height="110" fill="#4A5073"/>
<rect x="10165" y="4665" width="75" height="110" fill="#4A5073"/>
<rect x="9917" y="5003" width="75" height="110" fill="#4A5073"/>
<rect x="10041" y="5003" width="75" height="110" fill="#4A5073"/>
<rect x="10165" y="5003" width="75" height="110" fill="#4A5073"/>
<rect x="9451" y="4557" width="75" height="110" fill="#4A5073"/>
<rect x="9575" y="4557" width="75" height="110" fill="#4A5073"/>
<rect x="9699" y="4557" width="75" height="110" fill="#4A5073"/>
<rect x="9451" y="5233" width="75" height="110" fill="#4A5073"/>
<rect x="9575" y="5233" width="75" height="110" fill="#4A5073"/>
<rect x="9699" y="5233" width="75" height="110" fill="#4A5073"/>
<rect x="10383" y="4229" width="75" height="110" fill="#4A5073"/>
<rect x="10507" y="4229" width="75" height="110" fill="#4A5073"/>
<rect x="10631" y="4229" width="75" height="110" fill="#4A5073"/>
<rect x="10383" y="4567" width="75" height="110" fill="#4A5073"/>
<rect x="10507" y="4567" width="75" height="110" fill="#4A5073"/>
<rect x="10631" y="4567" width="75" height="110" fill="#4A5073"/>
<rect x="10383" y="5074" width="75" height="110" fill="#4A5073"/>
<rect x="10507" y="5074" width="75" height="110" fill="#4A5073"/>
<rect x="10631" y="5074" width="75" height="110" fill="#4A5073"/>
<rect x="10383" y="3556" width="75" height="110" fill="#4A5073"/>
<rect x="10507" y="3556" width="75" height="110" fill="#4A5073"/>
<rect x="10631" y="3556" width="75" height="110" fill="#4A5073"/>
<rect x="9451" y="4726" width="75" height="110" fill="#4A5073"/>
<rect x="9575" y="4726" width="75" height="110" fill="#4A5073"/>
<rect x="9699" y="4726" width="75" height="110" fill="#4A5073"/>
<rect x="10383" y="4398" width="75" height="110" fill="#4A5073"/>
<rect x="10507" y="4398" width="75" height="110" fill="#4A5073"/>
<rect x="10631" y="4398" width="75" height="110" fill="#4A5073"/>
<rect x="10383" y="4905" width="75" height="110" fill="#4A5073"/>
<rect x="10507" y="4905" width="75" height="110" fill="#4A5073"/>
<rect x="10631" y="4905" width="75" height="110" fill="#4A5073"/>
<rect x="10383" y="3387" width="75" height="110" fill="#4A5073"/>
<rect x="10507" y="3387" width="75" height="110" fill="#4A5073"/>
<rect x="10631" y="3387" width="75" height="110" fill="#4A5073"/>
<rect x="10383" y="4736" width="75" height="110" fill="#4A5073"/>
<rect x="10507" y="4736" width="75" height="110" fill="#4A5073"/>
<rect x="10631" y="4736" width="75" height="110" fill="#4A5073"/>
<rect x="10383" y="3218" width="75" height="110" fill="#4A5073"/>
<rect x="10507" y="3218" width="75" height="110" fill="#4A5073"/>
<rect x="10631" y="3218" width="75" height="110" fill="#4A5073"/>
<rect x="10383" y="5243" width="75" height="110" fill="#4A5073"/>
<rect x="10507" y="5243" width="75" height="110" fill="#4A5073"/>
<rect x="10631" y="5243" width="75" height="110" fill="#4A5073"/>
<rect x="10383" y="3725" width="75" height="110" fill="#4A5073"/>
<rect x="10507" y="3725" width="75" height="110" fill="#4A5073"/>
<rect x="10631" y="3725" width="75" height="110" fill="#4A5073"/>
<rect x="17377" y="3520" width="420" height="1989" fill="#1B1D2A"/>
<rect x="17843" y="3954" width="420" height="1555" fill="#1B1D2A"/>
<rect x="18309" y="3857" width="420" height="1652" fill="#1B1D2A"/>
<rect x="18309" y="3183" width="420" height="731" fill="#1B1D2A"/>
<rect x="17425" y="4242" width="75" height="110" fill="#4A5073"/>
<rect x="17549" y="4242" width="75" height="110" fill="#4A5073"/>
<rect x="17673" y="4242" width="75" height="110" fill="#4A5073"/>
<rect x="17425" y="3914" width="75" height="110" fill="#4A5073"/>
<rect x="17549" y="3914" width="75" height="110" fill="#4A5073"/>
<rect x="17673" y="3914" width="75" height="110" fill="#4A5073"/>
<rect x="17425" y="3576" width="75" height="110" fill="#4A5073"/>
<rect x="17549" y="3576" width="75" height="110" fill="#4A5073"/>
<rect x="17673" y="3576" width="75" height="110" fill="#4A5073"/>
<rect x="17425" y="4918" width="75" height="110" fill="#4A5073"/>
<rect x="17549" y="4918" width="75" height="110" fill="#4A5073"/>
<rect x="17673" y="4918" width="75" height="110" fill="#4A5073"/>
<rect x="18357" y="3914" width="75" height="110" fill="#4A5073"/>
<rect x="18481" y="3914" width="75" height="110" fill="#4A5073"/>
<rect x="18605" y="3914" width="75" height="110" fill="#4A5073"/>
<rect x="17891" y="4519" width="75" height="110" fill="#4A5073"/>
<rect x="18015" y="4519" width="75" height="110" fill="#4A5073"/>
<rect x="18139" y="4519" width="75" height="110" fill="#4A5073"/>
<rect x="17891" y="4181" width="75" height="110" fill="#4A5073"/>
<rect x="18015" y="4181" width="75" height="110" fill="#4A5073"/>
<rect x="18139" y="4181" width="75" height="110" fill="#4A5073"/>
<rect x="17891" y="4350" width="75" height="110" fill="#4A5073"/>
<rect x="18015" y="4350" width="75" height="110" fill="#4A5073"/>
<rect x="18139" y="4350" width="75" height="110" fill="#4A5073"/>
<rect x="17891" y="4012" width="75" height="110" fill="#4A5073"/>
<rect x="18015" y="4012" width="75" height="110" fill="#4A5073"/>
<rect x="18139" y="4012" width="75" height="110" fill="#4A5073"/>
<rect x="17891" y="4857" width="75" height="110" fill="#4A5073"/>
<rect x="18015" y="4857" width="75" height="110" fill="#4A5073"/>
<rect x="18139" y="4857" width="75" height="110" fill="#4A5073"/>
<rect x="17891" y="5195" width="75" height="110" fill="#4A5073"/>
<rect x="18015" y="5195" width="75" height="110" fill="#4A5073"/>
<rect x="18139" y="5195" width="75" height="110" fill="#4A5073"/>
<rect x="17425" y="4411" width="75" height="110" fill="#4A5073"/>
<rect x="17549" y="4411" width="75" height="110" fill="#4A5073"/>
<rect x="17673" y="4411" width="75" height="110" fill="#4A5073"/>
<rect x="17425" y="4083" width="75" height="110" fill="#4A5073"/>
<rect x="17549" y="4083" width="75" height="110" fill="#4A5073"/>
<rect x="17673" y="4083" width="75" height="110" fill="#4A5073"/>
<rect x="17425" y="3745" width="75" height="110" fill="#4A5073"/>
<rect x="17549" y="3745" width="75" height="110" fill="#4A5073"/>
<rect x="17673" y="3745" width="75" height="110" fill="#4A5073"/>
<rect x="17425" y="5087" width="75" height="110" fill="#4A5073"/>
<rect x="17549" y="5087" width="75" height="110" fill="#4A5073"/>
<rect x="17673" y="5087" width="75" height="110" fill="#4A5073"/>
<rect x="18357" y="4083" width="75" height="110" fill="#4A5073"/>
<rect x="18481" y="4083" width="75" height="110" fill="#4A5073"/>
<rect x="18605" y="4083" width="75" height="110" fill="#4A5073"/>
<rect x="17891" y="4688" width="75" height="110" fill="#4A5073"/>
<rect x="18015" y="4688" width="75" height="110" fill="#4A5073"/>
<rect x="18139" y="4688" width="75" height="110" fill="#4A5073"/>
<rect x="17891" y="5026" width="75" height="110" fill="#4A5073"/>
<rect x="18015" y="5026" width="75" height="110" fill="#4A5073"/>
<rect x="18139" y="5026" width="75" height="110" fill="#4A5073"/>
<rect x="17425" y="4580" width="75" height="110" fill="#4A5073"/>
<rect x="17549" y="4580" width="75" height="110" fill="#4A5073"/>
<rect x="17673" y="4580" width="75" height="110" fill="#4A5073"/>
<rect x="17425" y="5256" width="75" height="110" fill="#4A5073"/>
<rect x="17549" y="5256" width="75" height="110" fill="#4A5073"/>
<rect x="17673" y="5256" width="75" height="110" fill="#4A5073"/>
<rect x="18357" y="4252" width="75" height="110" fill="#4A5073"/>
<rect x="18481" y="4252" width="75" height="110" fill="#4A5073"/>
<rect x="18605" y="4252" width="75" height="110" fill="#4A5073"/>
<rect x="18357" y="4590" width="75" height="110" fill="#4A5073"/>
<rect x="18481" y="4590" width="75" height="110" fill="#4A5073"/>
<rect x="18605" y="4590" width="75" height="110" fill="#4A5073"/>
<rect x="18357" y="5097" width="75" height="110" fill="#4A5073"/>
<rect x="18481" y="5097" width="75" height="110" fill="#4A5073"/>
<rect x="18605" y="5097" width="75" height="110" fill="#4A5073"/>
<rect x="18357" y="3579" width="75" height="110" fill="#4A5073"/>
<rect x="18481" y="3579" width="75" height="110" fill="#4A5073"/>
<rect x="18605" y="3579" width="75" height="110" fill="#4A5073"/>
<rect x="17425" y="4749" width="75" height="110" fill="#4A5073"/>
<rect x="17549" y="4749" width="75" height="110" fill="#4A5073"/>
<rect x="17673" y="4749" width="75" height="110" fill="#4A5073"/>
<rect x="18357" y="4421" width="75" height="110" fill="#4A5073"/>
<rect x="18481" y="4421" width="75" height="110" fill="#4A5073"/>
<rect x="18605" y="4421" width="75" height="110" fill="#4A5073"/>
<rect x="18357" y="4928" width="75" height="110" fill="#4A5073"/>
<rect x="18481" y="4928" width="75" height="110" fill="#4A5073"/>
<rect x="18605" y="4928" width="75" height="110" fill="#4A5073"/>
<rect x="18357" y="3410" width="75" height="110" fill="#4A5073"/>
<rect x="18481" y="3410" width="75" height="110" fill="#4A5073"/>
<rect x="18605" y="3410" width="75" height="110" fill="#4A5073"/>
<rect x="18357" y="4759" width="75" height="110" fill="#4A5073"/>
<rect x="18481" y="4759" width="75" height="110" fill="#4A5073"/>
<rect x="18605" y="4759" width="75" height="110" fill="#4A5073"/>
<rect x="18357" y="3241" width="75" height="110" fill="#4A5073"/>
<rect x="18481" y="3241" width="75" height="110" fill="#4A5073"/>
<rect x="18605" y="3241" width="75" height="110" fill="#4A5073"/>
<rect x="18357" y="5266" width="75" height="110" fill="#4A5073"/>
<rect x="18481" y="5266" width="75" height="110" fill="#4A5073"/>
<rect x="18605" y="5266" width="75" height="110" fill="#4A5073"/>
<rect x="18357" y="3748" width="75" height="110" fill="#4A5073"/>
<rect x="18481" y="3748" width="75" height="110" fill="#4A5073"/>
<rect x="18605" y="3748" width="75" height="110" fill="#4A5073"/>
<path d="M7372 4895L7548 5170.34H7196L7372 4895Z" fill="#1B1D2A"/>
<path d="M7372 4971.98L7548 5247.32H7196L7372 4971.98Z" fill="#1B1D2A"/>
<path d="M7372 5048.96L7548 5324.3H7196L7372 5048.96Z" fill="#1B1D2A"/>
<rect x="7313.52" y="5130.87" width="116.969" height="348.868" fill="#1B1D2A"/>
<rect x="7343.43" y="5337.84" width="8.46493" height="61.6427" fill="#4A5073"/>
<rect x="7372.35" y="5397.51" width="8.46493" height="34.5199" fill="#4A5073"/>
<rect x="7392.81" y="5355.59" width="8.46493" height="41.9171" fill="#4A5073"/>
<path d="M8073.5 4592L8311 5012.85H7836L8073.5 4592Z" fill="#1B1D2A"/>
<path d="M8073.5 4709.66L8311 5130.51H7836L8073.5 4709.66Z" fill="#1B1D2A"/>
<path d="M8073.5 4827.31L8311 5248.16H7836L8073.5 4827.31Z" fill="#1B1D2A"/>
<rect x="7994.58" y="4952.51" width="157.842" height="533.225" fill="#1B1D2A"/>
<path d="M8794 4288L9116 4846.35H8472L8794 4288Z" fill="#1B1D2A"/>
<path d="M8794 4444.1L9116 5002.44H8472L8794 4444.1Z" fill="#1B1D2A"/>
<path d="M8794 4600.19L9116 5158.54H8472L8794 4600.19Z" fill="#1B1D2A"/>
<rect x="8687" y="4766.3" width="214" height="707.439" fill="#1B1D2A"/>
<rect x="8790" y="5212" width="13" height="70" fill="#4A5073"/>
<rect x="8079" y="5284" width="13" height="70" fill="#4A5073"/>
<rect x="8817" y="5254" width="12" height="85" fill="#4A5073"/>
<rect x="8765" y="5247" width="12" height="135" fill="#4A5073"/>
<rect x="8054" y="5319" width="12" height="135" fill="#4A5073"/>
<path d="M6595 4135L6917 4759.74H6273L6595 4135Z" fill="#1B1D2A"/>
<path d="M6595 4309.66L6917 4934.4H6273L6595 4309.66Z" fill="#1B1D2A"/>
<path d="M6595 4484.32L6917 5109.06H6273L6595 4484.32Z" fill="#1B1D2A"/>
<rect x="6488" y="4670.17" width="214" height="791.563" fill="#1B1D2A"/>
<rect x="6553" y="5133.25" width="13" height="80.7121" fill="#4A5073"/>
<rect x="6588" y="5188.78" width="13" height="45.1988" fill="#4A5073"/>
<rect x="6623" y="5156.49" width="13" height="54.8842" fill="#4A5073"/>
<rect x="6618" y="5249.47" width="12" height="54.8842" fill="#4A5073"/>
<rect x="6566" y="5244.95" width="12" height="87.169" fill="#4A5073"/>
<path fill-rule="evenodd" clip-rule="evenodd" d="M4667.5 2596.96L4743.86 2431.45C4772.46 2369.47 4860.55 2369.47 4889.14 2431.45L4965.68 2597.34C4921.63 2617.51 4870.94 2629 4817 2629C4762.73 2629 4711.74 2617.37 4667.5 2596.96Z" fill="#4A5073"/>
<rect width="12617" height="72" transform="matrix(-1 0 0 1 25234 5462)" fill="#1B1D2A"/>
<path d="M15874 4894L15698 5169.34H16050L15874 4894Z" fill="#1B1D2A"/>
<path d="M15874 4970.98L15698 5246.32H16050L15874 4970.98Z" fill="#1B1D2A"/>
<path d="M15874 5047.96L15698 5323.3H16050L15874 5047.96Z" fill="#1B1D2A"/>
<rect width="116.969" height="348.868" transform="matrix(-1 0 0 1 15932.5 5129.87)" fill="#1B1D2A"/>
<rect width="8.46493" height="61.6427" transform="matrix(-1 0 0 1 15902.6 5336.84)" fill="#4A5073"/>
<rect width="8.46493" height="34.5199" transform="matrix(-1 0 0 1 15873.6 5396.51)" fill="#4A5073"/>
<rect width="8.46493" height="41.9171" transform="matrix(-1 0 0 1 15853.2 5354.59)" fill="#4A5073"/>
<path d="M15172.5 4591L14935 5011.85H15410L15172.5 4591Z" fill="#1B1D2A"/>
<path d="M15172.5 4708.66L14935 5129.51H15410L15172.5 4708.66Z" fill="#1B1D2A"/>
<path d="M15172.5 4826.31L14935 5247.16H15410L15172.5 4826.31Z" fill="#1B1D2A"/>
<rect width="157.842" height="533.225" transform="matrix(-1 0 0 1 15251.4 4951.51)" fill="#1B1D2A"/>
<path d="M14452 4287L14130 4845.35H14774L14452 4287Z" fill="#1B1D2A"/>
<path d="M14452 4443.1L14130 5001.44H14774L14452 4443.1Z" fill="#1B1D2A"/>
<path d="M14452 4599.19L14130 5157.54H14774L14452 4599.19Z" fill="#1B1D2A"/>
<rect width="214" height="707.439" transform="matrix(-1 0 0 1 14559 4765.3)" fill="#1B1D2A"/>
<rect width="13" height="70" transform="matrix(-1 0 0 1 14456 5211)" fill="#4A5073"/>
<rect width="13" height="70" transform="matrix(-1 0 0 1 15167 5283)" fill="#4A5073"/>
<rect width="12" height="85" transform="matrix(-1 0 0 1 14429 5253)" fill="#4A5073"/>
<rect width="12" height="135" transform="matrix(-1 0 0 1 14481 5246)" fill="#4A5073"/>
<rect width="12" height="135" transform="matrix(-1 0 0 1 15192 5318)" fill="#4A5073"/>
<path d="M16660 4182L16338 4806.74H16982L16660 4182Z" fill="#1B1D2A"/>
<path d="M16660 4356.66L16338 4981.4H16982L16660 4356.66Z" fill="#1B1D2A"/>
<path d="M16660 4531.32L16338 5156.06H16982L16660 4531.32Z" fill="#1B1D2A"/>
<rect width="214" height="791.563" transform="matrix(-1 0 0 1 16767 4717.17)" fill="#1B1D2A"/>
<rect width="13" height="80.7121" transform="matrix(-1 0 0 1 16702 5180.25)" fill="#4A5073"/>
<rect width="13" height="45.1988" transform="matrix(-1 0 0 1 16667 5235.78)" fill="#4A5073"/>
<rect width="13" height="54.8842" transform="matrix(-1 0 0 1 16632 5203.49)" fill="#4A5073"/>
<rect width="12" height="54.8842" transform="matrix(-1 0 0 1 16637 5296.47)" fill="#4A5073"/>
<rect width="12" height="87.169" transform="matrix(-1 0 0 1 16689 5291.95)" fill="#4A5073"/>
<path d="M21021.3 1386.72C20992.4 1325.7 20905.6 1325.7 20876.7 1386.72L18979.1 5394.77C18954 5447.84 18992.7 5509 19051.4 5509H22846.6C22905.3 5509 22944 5447.84 22918.9 5394.77L21021.3 1386.72Z" fill="#1B1D2A"/>
<path fill-rule="evenodd" clip-rule="evenodd" d="M21151.1 1660.79L21021.3 1386.72C20992.4 1325.7 20905.6 1325.7 20876.7 1386.72L20746.7 1661.29C20806.4 1687.95 20875.2 1703.13 20948.3 1703.13C21021.9 1703.13 21091.1 1687.76 21151.1 1660.79Z" fill="#4A5073"/>
</svg>
