<svg width="168" height="32" viewBox="0 0 168 32" fill="none" xmlns="http://www.w3.org/2000/svg">
<path d="M5.1517 17.4698C4.70377 17.1853 4.17643 17.0427 3.56966 17.0427C2.95377 17.0427 2.42643 17.1967 1.98763 17.5046C1.66699 17.7297 1.42561 18.0112 1.25976 18.346V17.7146C1.25976 17.5001 1.20573 17.3393 1.09895 17.2319C0.991534 17.1244 0.83528 17.0707 0.629554 17.0707C0.433587 17.0707 0.279947 17.1244 0.167967 17.2319C0.0559867 17.3393 0 17.5001 0 17.7146V25.9607C0 26.1658 0.0559867 26.3246 0.167967 26.4366C0.279947 26.5486 0.433593 26.6046 0.629554 26.6046C0.83528 26.6046 0.99414 26.5486 1.10611 26.4366C1.21809 26.3246 1.27408 26.1658 1.27408 25.9607V22.8178C1.44009 23.1473 1.68147 23.4259 2.00195 23.6508C2.44075 23.9587 2.96289 24.1127 3.56965 24.1127C4.17642 24.1127 4.70572 23.9705 5.15885 23.6856C5.61132 23.4011 5.96158 22.9906 6.20898 22.4539C6.45573 21.9171 6.58008 21.2895 6.58008 20.5707C6.58008 19.8428 6.45378 19.2152 6.20182 18.6876C5.94987 18.1606 5.59961 17.7546 5.15169 17.4698L5.1517 17.4698ZM5.03972 21.9568C4.87175 22.3302 4.63607 22.6147 4.33268 22.8106C4.02929 23.0066 3.67708 23.1046 3.27604 23.1046C2.66015 23.1046 2.16992 22.8878 1.80599 22.4539C1.44205 22.0196 1.25976 21.392 1.25976 20.5707C1.25976 20.0203 1.34114 19.558 1.50455 19.1847C1.66797 18.8116 1.90169 18.5291 2.20507 18.3376C2.50781 18.1466 2.86523 18.0509 3.27604 18.0509C3.89193 18.0509 4.38216 18.2657 4.7461 18.6947C5.11003 19.1241 5.29167 19.7494 5.29167 20.5707C5.29167 21.1215 5.20768 21.5834 5.03972 21.9568Z" fill="white"/>
<path d="M12.8658 17.4766C12.371 17.1876 11.7877 17.0427 11.1158 17.0427C10.6119 17.0427 10.1568 17.1244 9.75057 17.2878C9.34497 17.4513 8.99731 17.6866 8.7076 17.9949C8.41854 18.3028 8.19719 18.6736 8.04289 19.1078C7.88859 19.5418 7.81177 20.0297 7.81177 20.5707C7.81177 21.2895 7.94718 21.9148 8.21802 22.4467C8.4882 22.9786 8.87101 23.3894 9.36581 23.6788C9.8606 23.9682 10.4439 24.1127 11.1158 24.1127C11.6197 24.1127 12.0748 24.031 12.481 23.8676C12.8866 23.7045 13.2343 23.4688 13.524 23.1609C13.8131 22.8526 14.0351 22.4796 14.1887 22.0408C14.343 21.6023 14.4198 21.1121 14.4198 20.5707C14.4198 19.8523 14.2844 19.2292 14.0136 18.7016C13.7428 18.1746 13.3606 17.766 12.8658 17.4766ZM12.8866 21.9568C12.7232 22.3302 12.4901 22.6147 12.1868 22.8106C11.8834 23.0066 11.5266 23.1046 11.1158 23.1046C10.509 23.1046 10.0214 22.8878 9.65291 22.4539C9.28377 22.0196 9.10017 21.392 9.10017 20.5707C9.10017 20.0203 9.18416 19.558 9.35213 19.1847C9.52009 18.8116 9.75577 18.5291 10.0592 18.3376C10.3619 18.1466 10.7148 18.0509 11.1158 18.0509C11.7317 18.0509 12.2219 18.2657 12.5859 18.6947C12.9498 19.1241 13.1321 19.7494 13.1321 20.5707C13.1321 21.1215 13.05 21.5834 12.8866 21.9568Z" fill="white"/>
<path d="M25.69 17.0707C25.5403 17.0707 25.4147 17.1058 25.3118 17.1758C25.2089 17.2458 25.1249 17.3741 25.0598 17.5606L23.2887 22.5139L21.5175 17.5606C21.4706 17.3926 21.3919 17.2693 21.2799 17.1898C21.1679 17.1104 21.0279 17.0707 20.86 17.0707C20.7011 17.0707 20.5677 17.1104 20.4609 17.1898C20.3535 17.2693 20.2669 17.3926 20.2018 17.5606L18.4117 22.4951L16.6738 17.5886C16.6087 17.3926 16.5292 17.2575 16.4355 17.1827C16.3424 17.1081 16.2161 17.0707 16.0579 17.0707C15.8899 17.0707 15.7545 17.1081 15.6516 17.1827C15.5488 17.2575 15.4837 17.3601 15.4557 17.4906C15.4277 17.6215 15.4466 17.7754 15.5117 17.9528L17.5976 23.5108C17.6725 23.7162 17.7747 23.863 17.9055 23.9515C18.0364 24.0404 18.19 24.0847 18.3678 24.0847C18.5546 24.0847 18.7128 24.0378 18.8437 23.9447C18.9746 23.8516 19.0768 23.7067 19.1516 23.5108L20.8316 18.9054L22.5117 23.5108C22.5865 23.7067 22.6913 23.8516 22.8268 23.9447C22.9622 24.0378 23.1184 24.0847 23.2955 24.0847C23.4732 24.0847 23.6295 24.0378 23.7649 23.9447C23.8997 23.8516 24.0006 23.7067 24.0657 23.5108L26.1516 17.9528C26.2076 17.8034 26.2285 17.6612 26.2148 17.5258C26.2005 17.3907 26.1516 17.2806 26.0677 17.1967C25.9837 17.1127 25.858 17.0707 25.69 17.0707Z" fill="white"/>
<path d="M33.4107 20.7459C33.4993 20.6664 33.5435 20.5522 33.5435 20.4028C33.5435 19.8803 33.4758 19.4112 33.3404 18.9959C33.205 18.5805 33.0064 18.2283 32.7454 17.9389C32.4843 17.6495 32.1692 17.4278 31.8007 17.2738C31.4316 17.1199 31.0188 17.0427 30.5618 17.0427C29.9172 17.0427 29.3456 17.1921 28.8463 17.4906C28.3469 17.7895 27.955 18.2048 27.6705 18.7367C27.386 19.2686 27.2434 19.8894 27.2434 20.5987C27.2434 21.3175 27.3879 21.9405 27.6777 22.4679C27.9667 22.9952 28.3749 23.4011 28.9023 23.6856C29.4296 23.9705 30.0624 24.1127 30.7994 24.1127C31.1913 24.1127 31.5995 24.0544 32.0247 23.9376C32.4491 23.821 32.8157 23.6557 33.1236 23.4408C33.2538 23.3568 33.343 23.2589 33.3892 23.1469C33.4361 23.0346 33.4504 22.9298 33.4316 22.8318C33.4127 22.7338 33.3658 22.6498 33.2916 22.5798C33.2167 22.5098 33.121 22.4724 33.0045 22.4678C32.8879 22.4633 32.7597 22.5027 32.6197 22.5867C32.33 22.7826 32.0292 22.918 31.7167 22.9926C31.4036 23.0675 31.0982 23.1046 30.7994 23.1046C30.0435 23.1046 29.4648 22.89 29.0637 22.4607C28.7143 22.0875 28.5264 21.549 28.481 20.8647H33.0253C33.1933 20.8647 33.3215 20.8253 33.4107 20.7458L33.4107 20.7459ZM28.4994 20.0528C28.5347 19.7315 28.5959 19.4281 28.7135 19.1638C28.8814 18.7859 29.1243 18.4916 29.4413 18.2817C29.759 18.0717 30.1418 17.9669 30.5898 17.9669C30.9999 17.9669 31.343 18.0554 31.6184 18.2328C31.8938 18.4102 32.1034 18.669 32.2486 19.0099C32.3722 19.3011 32.4317 19.6561 32.4496 20.0528H28.4994Z" fill="white"/>
<path d="M38.6257 17.0288C38.0001 17.0662 37.4825 17.2296 37.0717 17.5187C36.7655 17.7343 36.5326 18.0256 36.3718 18.3915V17.7146C36.3718 17.5001 36.3178 17.3393 36.2104 17.2319C36.1029 17.1245 35.9519 17.0707 35.7553 17.0707C35.5593 17.0707 35.4057 17.1245 35.2937 17.2319C35.1817 17.3393 35.1257 17.5001 35.1257 17.7146V23.4269C35.1257 23.6417 35.1817 23.8048 35.2937 23.9168C35.4057 24.0288 35.5691 24.0847 35.7833 24.0847C35.989 24.0847 36.1453 24.0288 36.2527 23.9168C36.3601 23.8048 36.4135 23.6417 36.4135 23.4269V20.1508C36.4135 19.5626 36.5795 19.1007 36.9109 18.7648C37.2416 18.4288 37.7156 18.2283 38.3315 18.1629L38.5834 18.1489C38.7794 18.1303 38.9239 18.0672 39.0177 17.9597C39.1108 17.8526 39.1531 17.7101 39.1433 17.5327C39.1342 17.3461 39.0828 17.2133 38.9897 17.1339C38.8959 17.0545 38.7748 17.0196 38.6257 17.0288L38.6257 17.0288Z" fill="white"/>
<path d="M45.8993 20.7459C45.9878 20.6664 46.0321 20.5522 46.0321 20.4028C46.0321 19.8803 45.9644 19.4112 45.8289 18.9959C45.6935 18.5805 45.4949 18.2283 45.2339 17.9389C44.9728 17.6495 44.6577 17.4278 44.2892 17.2738C43.9201 17.1199 43.5073 17.0427 43.0503 17.0427C42.4058 17.0427 41.8341 17.1921 41.3348 17.4906C40.8354 17.7895 40.4435 18.2048 40.159 18.7367C39.8745 19.2686 39.7319 19.8894 39.7319 20.5987C39.7319 21.3175 39.8765 21.9405 40.1662 22.4679C40.4552 22.9952 40.8634 23.4011 41.3908 23.6856C41.9181 23.9705 42.5509 24.1127 43.2879 24.1127C43.6798 24.1127 44.0881 24.0544 44.5132 23.9376C44.9377 23.821 45.3042 23.6557 45.6121 23.4408C45.7423 23.3568 45.8315 23.2589 45.8778 23.1469C45.9246 23.0346 45.939 22.9298 45.9201 22.8318C45.9012 22.7338 45.8543 22.6498 45.7801 22.5798C45.7052 22.5098 45.6095 22.4724 45.493 22.4678C45.3765 22.4633 45.2482 22.5027 45.1082 22.5867C44.8185 22.7826 44.5178 22.918 44.2053 22.9926C43.8921 23.0675 43.5868 23.1046 43.2879 23.1046C42.5321 23.1046 41.9533 22.89 41.5522 22.4607C41.2028 22.0875 41.015 21.549 40.9696 20.8647H45.5138C45.6818 20.8647 45.8101 20.8253 45.8993 20.7459ZM40.988 20.0528C41.0233 19.7315 41.0845 19.4281 41.202 19.1638C41.3699 18.7859 41.6128 18.4916 41.9298 18.2817C42.2476 18.0717 42.6304 17.9669 43.0783 17.9669C43.4884 17.9669 43.8315 18.0554 44.1069 18.2328C44.3823 18.4102 44.592 18.669 44.7371 19.0099C44.8607 19.3011 44.9203 19.6561 44.9382 20.0528C44.9382 20.0528 40.988 20.0528 40.988 20.0528Z" fill="white"/>
<path d="M53.144 14.0186C52.9382 14.0186 52.782 14.0726 52.6746 14.1797C52.5678 14.2871 52.5138 14.4479 52.5138 14.6628V18.3246C52.3476 17.9959 52.1065 17.7194 51.7859 17.4977C51.3471 17.1943 50.8243 17.0426 50.2182 17.0426C49.6108 17.0426 49.0815 17.1852 48.629 17.4697C48.1759 17.7546 47.8263 18.1605 47.5789 18.6875C47.3315 19.2152 47.2078 19.8428 47.2078 20.5706C47.2078 21.2894 47.3341 21.917 47.586 22.4538C47.838 22.9906 48.1902 23.4011 48.6427 23.6856C49.0958 23.9704 49.6205 24.1126 50.2182 24.1126C50.8243 24.1126 51.3497 23.9587 51.793 23.6507C52.113 23.4282 52.3516 23.1476 52.5137 22.8128V23.4268C52.5137 23.6416 52.5697 23.8047 52.6817 23.9167C52.7937 24.0287 52.948 24.0846 53.144 24.0846C53.349 24.0846 53.5079 24.0287 53.6199 23.9167C53.7318 23.8047 53.7878 23.6416 53.7878 23.4268V14.6628C53.7878 14.4479 53.7318 14.2871 53.6199 14.1797C53.5079 14.0726 53.349 14.0186 53.144 14.0186L53.144 14.0186ZM52.2826 21.9567C52.1192 22.3301 51.8862 22.6146 51.5828 22.8106C51.2794 23.0065 50.9226 23.1045 50.5118 23.1045C49.905 23.1045 49.4174 22.8877 49.0489 22.4538C48.6798 22.0195 48.4962 21.3919 48.4962 20.5707C48.4962 20.0202 48.5802 19.558 48.7481 19.1846C48.9161 18.8115 49.1518 18.529 49.4552 18.3376C49.7579 18.1465 50.1108 18.0508 50.5118 18.0508C51.1277 18.0508 51.6179 18.2656 51.9819 18.6947C52.3458 19.124 52.5281 19.7494 52.5281 20.5706C52.5281 21.1214 52.4461 21.5833 52.2826 21.9567Z" fill="white"/>
<path d="M64.6444 17.4697C64.1913 17.1852 63.662 17.0426 63.0552 17.0426C62.4485 17.0426 61.9263 17.1943 61.4875 17.4977C61.1671 17.7193 60.9257 17.9957 60.7597 18.3242V14.6628C60.7597 14.4479 60.7037 14.2871 60.5917 14.1797C60.4797 14.0726 60.3209 14.0186 60.1151 14.0186C59.9192 14.0186 59.7655 14.0726 59.6536 14.1797C59.5416 14.2871 59.4856 14.4479 59.4856 14.6628V23.4268C59.4856 23.6416 59.5416 23.8047 59.6536 23.9167C59.7655 24.0287 59.9192 24.0846 60.1151 24.0846C60.3209 24.0846 60.4771 24.0287 60.5845 23.9167C60.6913 23.8047 60.7454 23.6416 60.7454 23.4268V22.8018C60.9112 23.1417 61.1526 23.4256 61.4732 23.6507C61.912 23.9587 62.4394 24.1126 63.0553 24.1126C63.662 24.1126 64.1894 23.9704 64.6373 23.6856C65.0852 23.4011 65.4355 22.9906 65.6874 22.4538C65.9394 21.917 66.0657 21.2894 66.0657 20.5706C66.0657 19.8428 65.9413 19.2152 65.6946 18.6875C65.4472 18.1605 65.0969 17.7546 64.6444 17.4697ZM64.5253 21.9567C64.3573 22.3301 64.1217 22.6146 63.8183 22.8105C63.5149 23.0065 63.1627 23.1045 62.7616 23.1045C62.1457 23.1045 61.6555 22.8877 61.2916 22.4538C60.9276 22.0195 60.7453 21.3919 60.7453 20.5706C60.7453 20.0202 60.8267 19.5579 60.9901 19.1846C61.1536 18.8115 61.3873 18.529 61.6907 18.3376C61.9934 18.1465 62.3508 18.0508 62.7616 18.0508C63.3775 18.0508 63.8677 18.2656 64.2317 18.6947C64.5956 19.124 64.7773 19.7493 64.7773 20.5706C64.7773 21.1214 64.6933 21.5833 64.5253 21.9567Z" fill="white"/>
<path d="M73.31 17.1967C73.2215 17.1127 73.0978 17.0707 72.9389 17.0707C72.7619 17.0707 72.6219 17.1081 72.519 17.1827C72.4161 17.2575 72.3276 17.3881 72.2534 17.5746L70.2111 22.5141L68.2072 17.5746C68.1232 17.3881 68.0346 17.2575 67.9409 17.1827C67.8478 17.1081 67.7215 17.0707 67.5633 17.0707C67.3764 17.0707 67.2293 17.1127 67.1219 17.1967C67.0145 17.2806 66.952 17.3881 66.9331 17.5186C66.9142 17.6495 66.9376 17.794 67.0034 17.9528L69.5333 23.8431L68.6974 25.7367C68.6316 25.8858 68.6062 26.0284 68.6199 26.1638C68.6342 26.2989 68.6902 26.4063 68.7879 26.4857C68.8862 26.5648 69.0099 26.6045 69.159 26.6045C69.3361 26.6045 69.4741 26.5697 69.5724 26.4997C69.67 26.4297 69.7658 26.2966 69.8589 26.1006L73.3868 17.9388C73.4617 17.7894 73.4897 17.6494 73.4708 17.5186C73.4526 17.3881 73.3986 17.2806 73.31 17.1967Z" fill="white"/>
<path d="M132.815 8.5798H165.393C166.497 8.5798 167.392 7.68466 167.392 6.58049V1.99931C167.392 0.895147 166.497 0 165.393 0H132.815C131.711 0 130.816 0.89514 130.816 1.99931V6.58049C130.816 7.68466 131.711 8.5798 132.815 8.5798H132.815ZM130.966 1.99931C130.966 0.979814 131.796 0.150387 132.815 0.150387H165.393C166.413 0.150387 167.242 0.979814 167.242 1.99931V6.58049C167.242 7.59998 166.413 8.42941 165.393 8.42941H132.815C131.796 8.42941 130.966 7.59998 130.966 6.58049V1.99931V1.99931Z" fill="white"/>
<path d="M134.424 3.95581L136.82 6.48132H137.212V2.10193H136.271V4.65576L133.868 2.12374L133.848 2.10193H133.481V6.48132H134.424V3.95581Z" fill="white"/>
<path d="M140.147 2.09851H139.208V6.48133H140.147V2.09851Z" fill="white"/>
<path d="M148.822 3.95581L151.218 6.48132H151.61V2.10193H150.67V4.65576L148.245 2.10193H147.88V6.48132H148.822V3.95581Z" fill="white"/>
<path d="M154.714 6.48132H155.655V3.03503H156.996V2.10193H153.374V3.03503H154.714V6.48132Z" fill="white"/>
<path d="M159.721 2.09851H158.783V6.48133H159.721V2.09851Z" fill="white"/>
<path d="M163.633 6.48112H163.633C164.185 6.48112 164.594 6.31234 165.045 5.89864L165.097 5.85189L164.471 5.1285L164.42 5.17212C164.171 5.38452 163.981 5.49243 163.638 5.49243C163.297 5.49243 163.019 5.38245 162.813 5.16565C162.605 4.94943 162.499 4.65051 162.497 4.27763C162.497 3.92993 162.602 3.64222 162.81 3.42245C163.016 3.20182 163.293 3.08919 163.633 3.08757C163.968 3.08757 164.161 3.19666 164.421 3.41171L164.471 3.4528L165.096 2.73238L165.045 2.68534C164.595 2.27088 164.186 2.10168 163.633 2.10168C163.048 2.10168 162.551 2.31364 162.155 2.73165C161.759 3.15068 161.557 3.67273 161.556 4.28353C161.556 4.90743 161.757 5.43494 162.153 5.85116C162.551 6.26697 163.049 6.47893 163.633 6.48113V6.48112H163.633Z" fill="white"/>
<path d="M143.157 5.83125H144.886L145.127 6.48128L146.131 6.47762L144.471 2.10181H143.572L141.946 6.3844L141.91 6.48128H142.916L143.157 5.83125ZM144.041 3.45825L144.552 4.84619L143.506 4.85876L144.041 3.45825Z" fill="white"/>
<path d="M139.722 12.377C139.07 12.3773 138.516 12.8219 138.377 13.4476L135.515 24.1787L133.166 14.5632C133.013 13.947 132.462 13.516 131.827 13.5157H129.792C129.157 13.516 128.607 13.9467 128.453 14.5642L126.107 24.1783L123.247 13.4577C123.105 12.8219 122.551 12.3773 121.899 12.377H119.396L123.951 28.6457L124.003 28.8284H127.058C127.684 28.8258 128.231 28.4024 128.388 27.7976C129.072 25.1896 130.291 20.0626 130.81 17.8702C131.329 20.0626 132.549 25.1896 133.232 27.7976C133.39 28.4024 133.938 28.8258 134.563 28.8284H137.618L142.225 12.377H139.722V12.377H139.722Z" fill="white"/>
<path d="M114.557 16.2771C113.757 15.8403 112.826 15.6125 111.95 15.6351C111.149 15.6289 110.377 15.7874 109.65 16.1113C109.234 16.2918 108.82 16.6095 108.394 17.0766V13.7245C108.403 13.3615 108.27 13.0166 108.019 12.7534C107.769 12.4905 107.431 12.3407 107.028 12.3313H104.735V28.8219H107.026C107.373 28.8049 107.732 28.6849 107.99 28.4291C108.248 28.174 108.391 27.8335 108.394 27.4551L108.393 21.74C108.332 20.9457 108.599 20.044 109.044 19.5104C109.527 19.0155 110.192 18.7471 110.922 18.7898C111.608 18.7435 112.287 19.0087 112.755 19.4963C113.243 20.0796 113.484 20.8188 113.432 21.5948V27.4688C113.432 28.2184 114.042 28.8284 114.792 28.8284H117.084V21.1731C117.112 20.1481 116.892 19.1173 116.444 18.1867C116.024 17.3676 115.371 16.707 114.557 16.2771V16.2771H114.557Z" fill="white"/>
<path d="M158.132 12.7929C157.884 13.0682 157.743 13.4329 157.746 13.7914V27.461C157.743 27.8237 157.883 28.1663 158.139 28.4246C158.394 28.6829 158.734 28.8258 159.105 28.8284H161.398V12.3385H159.104C158.739 12.3408 158.394 12.5019 158.132 12.7929Z" fill="white"/>
<path d="M167.415 12.3558H165.122C164.757 12.3581 164.415 12.5163 164.158 12.8018C163.916 13.0715 163.779 13.4329 163.781 13.7915V27.461C163.778 27.8238 163.918 28.1663 164.173 28.4246C164.429 28.683 164.769 28.8258 165.14 28.8284H167.432C167.432 28.8284 167.415 12.3558 167.415 12.3558Z" fill="white"/>
<path d="M151.704 17.0045V17.1778C151.325 16.7971 150.886 16.4738 150.409 16.2259C149.627 15.8263 148.757 15.6276 147.882 15.643C145.755 15.5993 143.72 16.8375 142.769 18.7618C142.233 19.8229 141.96 21.0113 141.98 22.1902C141.958 23.3802 142.226 24.5728 142.755 25.6391C143.232 26.6067 143.97 27.4199 144.887 27.9894C145.761 28.5388 146.766 28.8284 147.789 28.8284H147.952C148.803 28.8284 149.65 28.6256 150.409 28.238C150.89 27.9914 151.329 27.6646 151.704 27.2757V27.4728C151.704 28.2197 152.314 28.8278 153.071 28.8278H155.363V15.643H153.071C152.318 15.643 151.704 16.2536 151.704 17.0045ZM151.045 24.1838C150.776 24.6876 150.376 25.109 149.892 25.4003C149.405 25.6797 148.851 25.8276 148.29 25.8276H148.286C147.737 25.8276 147.199 25.6763 146.729 25.3888C146.226 25.0865 145.816 24.6525 145.544 24.1358C145.234 23.539 145.076 22.8685 145.088 22.1857C145.072 21.5204 145.229 20.8589 145.541 20.2747C145.816 19.7733 146.221 19.3536 146.709 19.0634C147.2 18.7843 147.75 18.6448 148.301 18.6448C148.851 18.6448 149.402 18.7843 149.893 19.0631C150.394 19.3498 150.803 19.7701 151.072 20.275C151.378 20.8732 151.531 21.5438 151.515 22.2251C151.525 22.9053 151.363 23.5828 151.045 24.1838Z" fill="white"/>
<path d="M99.4226 13.6468C99.4226 12.9347 98.9097 12.377 98.2633 12.377H96.019V15.8691H96.0068C95.0652 15.8691 94.302 16.6323 94.302 17.5738V19.2946H96.019V25.195C95.968 26.3129 96.3967 27.3525 97.0549 28.0478C97.6225 28.647 98.4015 28.9634 99.3084 28.9634C100.291 28.9634 101.053 28.6753 101.572 28.107C102.375 27.2282 102.286 26.0113 102.282 25.9597L102.263 25.7278H100.597C100.207 25.7443 99.9021 25.6476 99.7115 25.4546C99.3964 25.1352 99.4148 24.5843 99.4226 24.3492V19.2946H100.655C101.596 19.2946 102.359 18.5313 102.359 17.5898V15.8691H99.4226V13.6468V13.6468Z" fill="white"/>
<path d="M91.184 9.82434L86.8555 7.51041C86.058 7.0841 85.1003 7.0841 84.3028 7.51041L79.9742 9.82434C79.0933 10.2952 78.5432 11.2131 78.5432 12.212V16.4891C78.5432 17.488 79.0933 18.4058 79.9742 18.8767L81.3186 19.5954L79.9742 20.314C79.0933 20.785 78.5432 21.7028 78.5432 22.7017V26.9788C78.5432 27.9777 79.0933 28.8955 79.9742 29.3664L84.3028 31.6803C85.1003 32.1066 86.058 32.1066 86.8555 31.6803L91.184 29.3664C92.065 28.8955 92.615 27.9777 92.615 26.9788V22.7017C92.615 21.7028 92.065 20.785 91.184 20.314L89.8396 19.5954L91.184 18.8767C92.065 18.4058 92.615 17.488 92.615 16.4891V12.212C92.615 11.2131 92.065 10.2952 91.184 9.82434ZM88.8512 25.8347C88.8512 26.2992 88.5953 26.726 88.1856 26.945L86.1728 28.0211C85.8018 28.2193 85.3565 28.2193 84.9856 28.0211L82.9727 26.945C82.5631 26.726 82.3074 26.2992 82.3074 25.8347V23.8457C82.3074 23.3812 82.5631 22.9544 82.9727 22.7354L84.9856 21.6593C85.3565 21.4611 85.8018 21.4611 86.1728 21.6593L88.1856 22.7354C88.5953 22.9544 88.8512 23.3812 88.8512 23.8457V25.8347ZM88.8512 15.345C88.8512 15.8095 88.5953 16.2363 88.1856 16.4553L86.1728 17.5314C85.8018 17.7296 85.3565 17.7296 84.9856 17.5314L82.9727 16.4553C82.5631 16.2363 82.3074 15.8095 82.3074 15.345V13.356C82.3074 12.8915 82.5631 12.4647 82.9727 12.2457L84.9856 11.1696C85.3565 10.9714 85.8018 10.9714 86.1728 11.1696L88.1856 12.2457C88.5953 12.4647 88.8512 12.8915 88.8512 13.356V15.345Z" fill="white"/>
</svg>

