<svg width="15" height="26" viewBox="0 0 15 26" fill="none" xmlns="http://www.w3.org/2000/svg">
<path d="M0.133663 11.7719L0.731214 10.685C1.6546 9.00061 3.04078 7.61439 4.72513 6.69111C5.67612 6.17529 6.1113 6.03943 6.54539 6.03943L8.55669 6.17422C9.15424 6.20182 9.58942 6.47354 11.3279 8.70137C11.8437 9.35305 12.4424 9.92408 13.1482 10.3858L14.3985 11.2009C14.9695 11.5809 15.1319 12.3154 14.7519 12.8853C14.3719 13.4564 13.6375 13.6187 13.0675 13.2388L11.8172 12.4236C10.9479 11.8526 10.1593 11.1468 9.50763 10.3317L8.52903 14.9785L10.431 16.8264C11.192 17.5598 11.7355 18.5108 11.9796 19.5712L13.094 24.1085C13.284 24.8961 12.7947 25.6847 12.0072 25.8747C11.8989 25.9023 11.7631 25.9288 11.6537 25.9288C11.0021 25.9288 10.4034 25.4936 10.241 24.8144L9.12658 20.277C8.99072 19.7612 8.74662 19.2984 8.36557 18.9461L6.46357 17.0982L6.27359 18.375C6.16533 19.0267 5.97427 19.6519 5.70255 20.2494L3.4206 25.0862C3.17648 25.602 2.63307 25.9289 2.08964 25.9289C1.87206 25.9289 1.68207 25.8748 1.46448 25.7931C0.731073 25.4396 0.431754 24.5703 0.757592 23.8369L3.03955 19.0002C3.203 18.6743 3.31126 18.2933 3.36539 17.9409L4.01706 13.5935L4.48088 9.84252C3.85572 10.4136 3.31229 11.0652 2.8782 11.8262L2.28065 12.9131C2.06307 13.3207 1.62898 13.5383 1.22141 13.5383C1.03142 13.5383 0.813837 13.4841 0.650374 13.4024C0.051763 13.1031 -0.165825 12.3697 0.133494 11.7721L0.133663 11.7719Z" fill="#1C1D2A"/>
<path d="M8.21295 0.0870452C9.69039 0.248375 10.7571 1.57511 10.5957 3.05252C10.4355 4.5289 9.10767 5.5956 7.63135 5.43531C6.15391 5.27504 5.08722 3.94725 5.24856 2.46983C5.40883 0.993453 6.73662 -0.0732384 8.21295 0.0870452" fill="#1C1D2A"/>
</svg>
